<?xml version="1.0" encoding="UTF-8"?>
<svg xmlns="http://www.w3.org/2000/svg" width="32" height="32" viewBox="0 0 32 32" fill="none">
  <path d="M18.7342 7.99984C20.0365 8.25392 21.2334 8.89085 22.1716 9.82908C23.1098 10.7673 23.7468 11.9642 24.0009 13.2665M18.7342 2.6665C21.4399 2.96709 23.963 4.17874 25.8892 6.10251C27.8154 8.02629 29.0302 10.5479 29.3342 13.2532M13.6368 18.4839C12.0347 16.8818 10.7697 15.0703 9.84167 13.1375C9.76185 12.9712 9.72194 12.8881 9.69127 12.7829C9.58231 12.4091 9.66058 11.9501 9.88726 11.6335C9.95105 11.5444 10.0273 11.4682 10.1797 11.3158C10.6458 10.8497 10.8789 10.6166 11.0313 10.3822C11.6059 9.49837 11.6059 8.35893 11.0313 7.47508C10.8789 7.24071 10.6458 7.00764 10.1797 6.5415L9.91985 6.28167C9.21126 5.57308 8.85696 5.21879 8.47645 5.02633C7.71971 4.64357 6.82602 4.64357 6.06927 5.02633C5.68876 5.21879 5.33447 5.57308 4.62588 6.28167L4.4157 6.49185C3.70953 7.19801 3.35645 7.5511 3.08679 8.03114C2.78756 8.56381 2.57241 9.39114 2.57423 10.0021C2.57587 10.5527 2.68267 10.929 2.89628 11.6816C4.04424 15.7261 6.21021 19.5426 9.39418 22.7266C12.5782 25.9105 16.3946 28.0765 20.4392 29.2245C21.1918 29.4381 21.5681 29.5449 22.1187 29.5465C22.7296 29.5483 23.5569 29.3332 24.0896 29.034C24.5697 28.7643 24.9227 28.4112 25.6289 27.7051L25.8391 27.4949C26.5477 26.7863 26.902 26.432 27.0944 26.0515C27.4772 25.2947 27.4772 24.401 27.0944 23.6443C26.902 23.2638 26.5477 22.9095 25.8391 22.2009L25.5793 21.9411C25.1131 21.4749 24.88 21.2419 24.6457 21.0895C23.7618 20.5148 22.6224 20.5148 21.7385 21.0895C21.5042 21.2419 21.2711 21.4749 20.8049 21.9411C20.6525 22.0935 20.5763 22.1697 20.4872 22.2335C20.1707 22.4602 19.7116 22.5384 19.3378 22.4295C19.2327 22.3988 19.1495 22.3589 18.9833 22.2791C17.0505 21.3511 15.2389 20.086 13.6368 18.4839Z" stroke="white" stroke-width="2.66667" stroke-linecap="round" stroke-linejoin="round"></path>
</svg>
