<?xml version="1.0" encoding="UTF-8"?>
<svg xmlns="http://www.w3.org/2000/svg" width="32" height="32" viewBox="0 0 32 32" fill="none">
  <mask id="mask0_819_1619" style="mask-type:alpha" maskUnits="userSpaceOnUse" x="0" y="0" width="32" height="32">
    <rect width="32" height="32" fill="#D9D9D9"></rect>
  </mask>
  <g mask="url(#mask0_819_1619)">
    <path d="M15.9 22.6812C16.2556 22.6812 16.5556 22.5572 16.8 22.3092C17.0444 22.0612 17.1667 21.7568 17.1667 21.3961C17.1667 21.0354 17.0444 20.7311 16.8 20.4831C16.5556 20.2351 16.2556 20.1111 15.9 20.1111C15.5444 20.1111 15.2444 20.2351 15 20.4831C14.7556 20.7311 14.6333 21.0354 14.6333 21.3961C14.6333 21.7568 14.7556 22.0612 15 22.3092C15.2444 22.5572 15.5444 22.6812 15.9 22.6812ZM16.7667 16.628C16.8333 16.2899 16.9833 15.9461 17.2167 15.5966C17.45 15.2472 17.7889 14.847 18.2333 14.3961C18.9444 13.6747 19.4444 13.0266 19.7333 12.4517C20.0222 11.8768 20.1667 11.2399 20.1667 10.5411C20.1667 9.36876 19.8056 8.45008 19.0833 7.78502C18.3611 7.11997 17.3889 6.78744 16.1667 6.78744C15.1667 6.78744 14.2389 7.00161 13.3833 7.42995C12.5278 7.85829 11.9778 8.38808 11.7333 9.01932C11.6222 9.26731 11.6 9.50966 11.6667 9.74638C11.7333 9.98309 11.8889 10.1578 12.1333 10.2705C12.3778 10.3833 12.6278 10.3776 12.8833 10.2536C13.1389 10.1296 13.3667 9.96618 13.5667 9.76328C13.9 9.42512 14.2722 9.16586 14.6833 8.98551C15.0944 8.80515 15.5444 8.71498 16.0333 8.71498C16.7 8.71498 17.2389 8.88969 17.65 9.23913C18.0611 9.58857 18.2667 10.0676 18.2667 10.6763C18.2667 11.1272 18.1444 11.5668 17.9 11.9952C17.6556 12.4235 17.2556 12.8969 16.7 13.4155C16.0778 14.0242 15.6056 14.6047 15.2833 15.157C14.9611 15.7093 14.8 16.2109 14.8 16.6618C14.8 16.9324 14.8889 17.1691 15.0667 17.372C15.2444 17.5749 15.4556 17.6763 15.7 17.6763C15.9667 17.6763 16.1944 17.5749 16.3833 17.372C16.5722 17.1691 16.7 16.9211 16.7667 16.628ZM15.3 30.6957L12 27.3478H6C5.46667 27.3478 5 27.1393 4.6 26.7222C4.2 26.3052 4 25.8374 4 25.3188V5.02899C4 4.48792 4.2 4.01449 4.6 3.6087C5 3.2029 5.46667 3 6 3H26C26.5111 3 26.9722 3.2029 27.3833 3.6087C27.7944 4.01449 28 4.48792 28 5.02899V25.3188C28 25.8374 27.7944 26.3052 27.3833 26.7222C26.9722 27.1393 26.5111 27.3478 26 27.3478H20L16.7 30.6957C16.5 30.8986 16.2667 31 16 31C15.7333 31 15.5 30.8986 15.3 30.6957ZM6 25.3188H12.8L16 28.5652L19.2 25.3188H26V5.02899H6V25.3188Z" fill="#191919"></path>
  </g>
</svg>
