<?xml version="1.0" encoding="UTF-8"?>
<svg xmlns="http://www.w3.org/2000/svg" width="32" height="32" viewBox="0 0 32 32" fill="none">
  <mask id="mask0_819_1616" style="mask-type:alpha" maskUnits="userSpaceOnUse" x="0" y="0" width="32" height="32">
    <rect width="32" height="32" fill="#D9D9D9"></rect>
  </mask>
  <g mask="url(#mask0_819_1616)">
    <path d="M12.6667 13.7333L16 12.0667L19.3333 13.7333V6H12.6667V13.7333ZM9.33333 22.6667V20H16V22.6667H9.33333ZM6 28C5.46667 28 5 27.8 4.6 27.4C4.2 27 4 26.5333 4 26V6C4 5.46667 4.2 5 4.6 4.6C5 4.2 5.46667 4 6 4H26C26.5333 4 27 4.2 27.4 4.6C27.8 5 28 5.46667 28 6V26C28 26.5333 27.8 27 27.4 27.4C27 27.8 26.5333 28 26 28H6ZM6 26H26V6H21.3333V16.9667L16 14.3L10.6667 16.9667V6H6V26Z" fill="#191919"></path>
  </g>
</svg>
