<?xml version="1.0" encoding="UTF-8"?>
<svg xmlns="http://www.w3.org/2000/svg" width="32" height="32" viewBox="0 0 32 32" fill="none">
  <mask id="mask0_819_1617" style="mask-type:alpha" maskUnits="userSpaceOnUse" x="0" y="0" width="32" height="32">
    <rect width="32" height="32" fill="#D9D9D9"></rect>
  </mask>
  <g mask="url(#mask0_819_1617)">
    <path d="M6.96875 30C6.44375 30 5.98437 29.7975 5.59062 29.3925C5.19687 28.9875 5 28.515 5 27.975V10.425C5 9.885 5.19687 9.4125 5.59062 9.0075C5.98437 8.6025 6.44375 8.4 6.96875 8.4H10.5781V8.0625C10.5781 6.645 11.0539 5.44688 12.0055 4.46813C12.957 3.48938 14.1219 3 15.5 3C16.8781 3 18.043 3.48938 18.9945 4.46813C19.9461 5.44688 20.4219 6.645 20.4219 8.0625V8.4H24.0312C24.5562 8.4 25.0156 8.6025 25.4094 9.0075C25.8031 9.4125 26 9.885 26 10.425V27.975C26 28.515 25.8031 28.9875 25.4094 29.3925C25.0156 29.7975 24.5562 30 24.0312 30H6.96875ZM6.96875 27.975H24.0312V10.425H20.4219V13.4625C20.4219 13.755 20.3289 13.9969 20.143 14.1881C19.957 14.3794 19.7219 14.475 19.4375 14.475C19.1531 14.475 18.918 14.3794 18.732 14.1881C18.5461 13.9969 18.4531 13.755 18.4531 13.4625V10.425H12.5469V13.4625C12.5469 13.755 12.4539 13.9969 12.268 14.1881C12.082 14.3794 11.8469 14.475 11.5625 14.475C11.2781 14.475 11.043 14.3794 10.857 14.1881C10.6711 13.9969 10.5781 13.755 10.5781 13.4625V10.425H6.96875V27.975ZM12.5469 8.4H18.4531V8.0625C18.4531 7.2075 18.1688 6.4875 17.6 5.9025C17.0313 5.3175 16.3313 5.025 15.5 5.025C14.6687 5.025 13.9687 5.3175 13.4 5.9025C12.8312 6.4875 12.5469 7.2075 12.5469 8.0625V8.4Z" fill="#191919"></path>
  </g>
</svg>
