<?xml version="1.0" encoding="UTF-8"?>
<svg xmlns="http://www.w3.org/2000/svg" width="32" height="32" viewBox="0 0 32 32" fill="none">
  <mask id="mask0_819_1618" style="mask-type:alpha" maskUnits="userSpaceOnUse" x="0" y="0" width="32" height="32">
    <rect width="32" height="32" fill="#D9D9D9"></rect>
  </mask>
  <g mask="url(#mask0_819_1618)">
    <path d="M19.1259 29.3933C18.7219 29.7978 18.2338 30 17.6615 30C17.0892 30 16.601 29.7978 16.197 29.3933L3.57232 16.7528C3.34788 16.5281 3.19638 16.2921 3.11783 16.0449C3.03928 15.7978 3 15.5393 3 15.2697V5.02247C3 4.4382 3.19077 3.95506 3.57232 3.57303C3.95387 3.19101 4.43641 3 5.01995 3H15.2544C15.5237 3 15.793 3.03933 16.0623 3.11798C16.3317 3.19663 16.5786 3.34831 16.803 3.57303L29.3603 16.1461C29.7868 16.573 30 17.073 30 17.6461C30 18.2191 29.7868 18.7191 29.3603 19.1461L19.1259 29.3933ZM17.7456 28.0112L27.98 17.764L15.2544 5.02247H5.01995V15.2697L17.7456 28.0112ZM8.55486 10.2809C9.02618 10.2809 9.43579 10.1067 9.78367 9.75843C10.1315 9.41011 10.3055 9 10.3055 8.52809C10.3055 8.05618 10.1315 7.64607 9.78367 7.29775C9.43579 6.94944 9.02618 6.77528 8.55486 6.77528C8.08354 6.77528 7.67394 6.94944 7.32606 7.29775C6.97818 7.64607 6.80424 8.05618 6.80424 8.52809C6.80424 9 6.97818 9.41011 7.32606 9.75843C7.67394 10.1067 8.08354 10.2809 8.55486 10.2809Z" fill="#191919"></path>
  </g>
</svg>
