<?xml version="1.0" encoding="UTF-8"?>
<svg xmlns="http://www.w3.org/2000/svg" width="50" height="50" viewBox="0 0 50 50" fill="none">
  <path d="M43.9782 36.2241L24.3293 49.8467C24.1866 49.9456 24.0169 49.9991 23.8428 50C23.6687 50.0009 23.4985 49.9492 23.3547 49.8517L3.18715 36.1792C3.07264 36.1016 2.97881 35.9975 2.9137 35.8761C2.84859 35.7546 2.81415 35.6192 2.81332 35.4816C2.8125 35.3441 2.84532 35.2083 2.90897 35.0861C2.97262 34.9638 3.0652 34.8587 3.17878 34.7798L5.61476 33.0871C5.80118 32.9616 6.02987 32.9139 6.25143 32.9544C6.47299 32.9948 6.66962 33.1201 6.79884 33.3032C6.92806 33.4863 6.9795 33.7125 6.94202 33.9329C6.90455 34.1533 6.78119 34.3502 6.59858 34.4811L5.17774 35.468L23.8328 48.1154L41.9855 35.5299L40.1561 34.2734C39.9691 34.145 39.8413 33.9481 39.8006 33.7261C39.7599 33.5041 39.8098 33.2751 39.9393 33.0896C40.0687 32.9041 40.2671 32.7772 40.4909 32.7369C40.7146 32.6965 40.9454 32.746 41.1324 32.8744L43.9749 34.8271C44.0873 34.9061 44.1791 35.0107 44.2425 35.132C44.3059 35.2534 44.3392 35.388 44.3395 35.5247C44.3398 35.6614 44.3072 35.7962 44.2444 35.9179C44.1815 36.0395 44.0903 36.1445 43.9782 36.2241ZM48.723 22.7779C48.6196 22.6834 48.4943 22.6156 48.3582 22.5806C48.2221 22.5455 48.0794 22.5442 47.9427 22.5769L41.6155 24.0859C41.4627 24.1245 41.3234 24.2038 41.2129 24.3153C41.1023 24.4268 41.0246 24.5662 40.9882 24.7184C40.9518 24.8706 40.958 25.0297 41.0064 25.1786C41.0547 25.3275 41.1431 25.4605 41.2622 25.563L43.1518 27.146L28.6688 37.277L24.3573 34.3281L34.2132 27.5435C34.3171 27.4706 34.4035 27.3758 34.4661 27.266C34.5288 27.1561 34.5663 27.0339 34.5758 26.908C34.5853 26.7821 34.5667 26.6557 34.5212 26.5378C34.4757 26.4199 34.4046 26.3134 34.3128 26.2259L33.2964 25.2735L36.72 24.5146L35.8618 29.1036C35.824 29.324 35.875 29.5502 36.0039 29.7335C36.1328 29.9167 36.3292 30.0423 36.5507 30.0831C36.7721 30.1239 37.0009 30.0767 37.1875 29.9515C37.3741 29.8264 37.5036 29.6334 37.548 29.4143L38.6432 23.5592C38.669 23.4209 38.6599 23.2784 38.6167 23.1445C38.5734 23.0105 38.4974 22.8893 38.3953 22.7916C38.2933 22.694 38.1685 22.6229 38.032 22.5849C37.8955 22.5468 37.7517 22.5429 37.6133 22.5735L31.3472 23.9617C31.1966 23.9971 31.0582 24.0721 30.9468 24.1787C30.8353 24.2854 30.7548 24.4199 30.7137 24.568C30.6726 24.7161 30.6725 24.8725 30.7132 25.0208C30.754 25.169 30.8342 25.3036 30.9454 25.4105L32.367 26.7431L22.8482 33.296L12.1266 25.963C11.9393 25.8401 11.7109 25.795 11.4905 25.8374C11.27 25.8798 11.0751 26.0064 10.9477 26.1898C10.8203 26.3733 10.7705 26.599 10.809 26.8185C10.8476 27.038 10.9713 27.2337 11.1538 27.3637L21.3429 34.3323L18.0356 36.6091L2.34402 25.4787C2.15887 25.3521 1.93101 25.3027 1.70952 25.3412C1.48804 25.3797 1.29065 25.5029 1.15989 25.6845C1.02913 25.866 0.975462 26.0912 1.01044 26.3116C1.04542 26.5319 1.16626 26.7299 1.34691 26.8627L17.5295 38.3416C17.6732 38.4436 17.8452 38.499 18.0219 38.5003C18.1986 38.5015 18.3714 38.4486 18.5166 38.3487L22.8519 35.3644L28.1883 39.0141C28.3326 39.1129 28.504 39.1654 28.6793 39.1645C28.8546 39.1636 29.0254 39.1094 29.1687 39.0092L45.0474 27.902C45.1535 27.8263 45.2409 27.7277 45.303 27.6137C45.3652 27.4996 45.4004 27.3731 45.4062 27.2436C45.4119 27.114 45.3879 26.9849 45.3361 26.8659C45.2842 26.7469 45.2058 26.6412 45.1068 26.5566L43.6626 25.3474L47.1012 24.527L46.444 28.7676C46.4132 28.9888 46.4714 29.2132 46.606 29.3922C46.7405 29.5713 46.9406 29.6906 47.1631 29.7246C47.3856 29.7585 47.6126 29.7042 47.7951 29.5735C47.9776 29.4428 48.101 29.2461 48.1386 29.0259L48.9901 23.533C49.0114 23.3951 48.9982 23.254 48.9516 23.1223C48.9051 22.9906 48.8265 22.8724 48.723 22.7779ZM22.2332 26.9354C24.2176 26.9332 26.1201 26.1501 27.5233 24.7578C28.9265 23.3655 29.7158 21.4778 29.718 19.5089C29.6797 18.7191 29.8244 17.2023 28.6295 17.3236C28.4047 17.3573 28.2025 17.4783 28.0675 17.6598C27.9325 17.8414 27.8757 18.0687 27.9095 18.2918C28.0784 19.129 28.0591 19.9929 27.8529 20.8218C27.6468 21.6507 27.2587 22.4243 26.7166 23.0873C26.1745 23.7504 25.4916 24.2866 24.7166 24.6576C23.9416 25.0287 23.0936 25.2255 22.2332 25.234C20.7034 25.2323 19.2368 24.6286 18.1551 23.5553C17.0734 22.4819 16.4649 21.0267 16.4632 19.5089C16.4632 14.909 20.6411 9.85593 22.2336 8.09685C24.1535 10.1815 25.744 12.5427 26.9508 15.1001C27.0434 15.3039 27.213 15.4635 27.4231 15.5442C27.6333 15.6249 27.8669 15.6204 28.0737 15.5315C28.2805 15.4427 28.4437 15.2767 28.5281 15.0694C28.6125 14.8621 28.6114 14.6302 28.5249 14.4238C27.0993 11.4052 25.1779 8.64272 22.8394 6.24923C22.7599 6.17022 22.6654 6.10754 22.5613 6.06477C22.4573 6.02201 22.3458 6 22.2333 6C22.1207 6 22.0092 6.02201 21.9052 6.06477C21.8012 6.10754 21.7067 6.17022 21.6271 6.24923C21.3461 6.52796 14.7485 13.1474 14.7485 19.5089C14.7507 21.4778 15.5399 23.3655 16.9431 24.7578C18.3463 26.1501 20.2488 26.9332 22.2332 26.9354ZM22.7452 21.2555C22.5501 21.3157 22.383 21.4428 22.2737 21.6141C22.1645 21.7854 22.1203 21.9897 22.1491 22.1904C22.1778 22.3911 22.2777 22.5751 22.4307 22.7094C22.5838 22.8436 22.78 22.9195 22.9843 22.9233C23.7765 22.7624 24.4881 22.3342 24.9981 21.7116C25.5082 21.089 25.7852 20.3104 25.782 19.5081C25.8044 18.8155 25.703 17.7664 24.7438 17.8823C23.8574 18.0399 24.0211 18.8452 24.0674 19.5081C24.0658 19.9017 23.9363 20.2843 23.6981 20.5991C23.4599 20.9139 23.1257 21.1441 22.7452 21.2555Z" fill="#191919"></path>
</svg>
