<?xml version="1.0" encoding="UTF-8"?>
<svg xmlns="http://www.w3.org/2000/svg" width="176" height="35" viewBox="0 0 176 35" fill="none">
  <path fill-rule="evenodd" clip-rule="evenodd" d="M26 0V22.0323L13 35L0 22.0323V2.38681e-07L11.4693 11.4408L9.42478 13.4732L2.88889 6.9536V11.4598L8.70026 17.2567L26 0ZM10.7413 19.2927L13.2015 21.7469L23.1111 11.8619V6.9536L10.7413 19.2927ZM23.1111 15.9338L15.2426 23.7828L17.7028 26.237L23.1111 20.8421V15.9338ZM15.6618 28.2729L2.88889 15.5317V20.8421L13 30.9281L15.6618 28.2729Z" fill="white"></path>
  <path d="M43.3982 23.2069C42.2028 23.2069 41.1453 22.9425 40.2257 22.4138C39.3176 21.8735 38.5992 21.1379 38.0705 20.2068C37.5532 19.2643 37.2946 18.1838 37.2946 16.9654C37.2946 15.7469 37.5532 14.6722 38.0705 13.7411C38.5992 12.7986 39.3176 12.0629 40.2257 11.5342C41.1453 10.9939 42.2028 10.7238 43.3982 10.7238C44.2718 10.7238 45.0707 10.879 45.7948 11.1894C46.5305 11.4882 47.1627 11.9135 47.6914 12.4652C48.2317 13.017 48.6455 13.6549 48.9328 14.3791L46.3293 15.2584C46.1569 14.8561 45.9213 14.5055 45.6224 14.2067C45.335 13.9078 45.0017 13.6779 44.6224 13.517C44.2545 13.3561 43.8465 13.2756 43.3982 13.2756C42.766 13.2756 42.2028 13.4308 41.7085 13.7411C41.2142 14.0515 40.8292 14.4883 40.5533 15.0515C40.2774 15.6033 40.1395 16.2412 40.1395 16.9654C40.1395 17.6895 40.2774 18.3332 40.5533 18.8964C40.8407 19.4482 41.2315 19.885 41.7257 20.2068C42.2315 20.5172 42.8062 20.6724 43.4499 20.6724C43.9212 20.6724 44.3408 20.5861 44.7086 20.4137C45.0764 20.2413 45.3925 19.9999 45.6569 19.6896C45.9328 19.3792 46.1684 19.0229 46.3638 18.6206L48.9673 19.4999C48.6914 20.2356 48.2834 20.885 47.7431 21.4482C47.2029 22 46.565 22.431 45.8293 22.7414C45.0937 23.0517 44.2833 23.2069 43.3982 23.2069ZM59.575 23L55.0576 10.9307H57.8163L62.5061 23H59.575ZM50.1609 23L54.8507 10.9307H57.6094L53.0921 23H50.1609ZM52.3679 20.7068V18.2585H60.3164V20.7068H52.3679ZM66.956 18.9482V16.3964H69.1974C69.5193 16.3964 69.8067 16.3332 70.0595 16.2067C70.3124 16.0803 70.5078 15.9079 70.6458 15.6895C70.7952 15.4596 70.8699 15.2067 70.8699 14.9308C70.8699 14.5055 70.709 14.1549 70.3871 13.8791C70.0768 13.6032 69.663 13.4653 69.1457 13.4653H66.956V10.9307L69.2837 10.9135C70.1572 10.902 70.9331 11.0687 71.6113 11.4135C72.2895 11.7583 72.8182 12.2354 73.1976 12.8446C73.5884 13.4538 73.7838 14.1492 73.7838 14.9308C73.7838 15.7125 73.5884 16.4079 73.1976 17.0171C72.8067 17.6263 72.2665 18.1033 71.5768 18.4482C70.8986 18.7815 70.117 18.9482 69.2319 18.9482H66.956ZM64.5422 23V10.9307H67.3181V23H64.5422ZM71.094 23L68.3698 18.2068L70.4561 16.6723L74.2665 23H71.094ZM85.2497 23V20.3792C85.7784 20.3792 86.2669 20.2988 86.7152 20.1379C87.1635 19.9654 87.5543 19.7298 87.8877 19.4309C88.221 19.1206 88.4796 18.7585 88.6636 18.3447C88.8475 17.9194 88.9394 17.4596 88.9394 16.9654C88.9394 16.4711 88.8475 16.0171 88.6636 15.6033C88.4796 15.178 88.221 14.8159 87.8877 14.517C87.5543 14.2067 87.1635 13.971 86.7152 13.8101C86.2669 13.6377 85.7784 13.5515 85.2497 13.5515V10.9307C86.5256 10.9307 87.652 11.1894 88.6291 11.7066C89.6176 12.2239 90.3877 12.9365 90.9395 13.8446C91.4912 14.7412 91.7671 15.7814 91.7671 16.9654C91.7671 18.1378 91.4855 19.1781 90.9222 20.0861C90.3705 20.9942 89.6061 21.7069 88.6291 22.2241C87.652 22.7414 86.5256 23 85.2497 23ZM82.7496 23V20.3792H85.2497V23H82.7496ZM81.3013 23V10.9307H84.0772V23H81.3013ZM82.7496 13.5515V10.9307H85.2497V13.5515H82.7496ZM94.1765 23V10.9307H96.9525V23H94.1765ZM96.1938 23V20.4482H102.125V23H96.1938ZM96.1938 18.155V15.6895H101.211V18.155H96.1938ZM96.1938 13.4825V10.9307H102.039V13.4825H96.1938ZM107.635 23V11.9307H110.394V23H107.635ZM104.118 13.4825V10.9307H113.911V13.4825H104.118ZM123.373 23L118.856 10.9307H121.614L126.304 23H123.373ZM113.959 23L118.649 10.9307H121.408L116.89 23H113.959ZM116.166 20.7068V18.2585H124.114V20.7068H116.166ZM128.34 23V10.9307H131.116V23H128.34ZM134.177 23V10.9307H136.953V23H134.177ZM135.833 23V20.4482H142.091V23H135.833ZM144.291 23V10.9307H147.067V23H144.291ZM158.335 23L150.766 12.448L153.042 10.9307L160.56 21.431L158.335 23ZM150.128 23V10.9307H153.042L152.904 13.448V23.0172L150.128 23ZM158.335 23V10.9307H161.111V23H158.335ZM169.855 23.2069C168.613 23.2069 167.516 22.9425 166.562 22.4138C165.619 21.8735 164.878 21.1379 164.337 20.2068C163.797 19.2643 163.527 18.1838 163.527 16.9654C163.527 15.7469 163.797 14.6722 164.337 13.7411C164.878 12.7986 165.619 12.0629 166.562 11.5342C167.516 10.9939 168.613 10.7238 169.855 10.7238C170.625 10.7238 171.32 10.8388 171.941 11.0687C172.573 11.2871 173.125 11.5917 173.596 11.9825C174.067 12.3733 174.458 12.8216 174.769 13.3273L172.475 14.7067C172.303 14.4308 172.073 14.1837 171.786 13.9653C171.51 13.7469 171.205 13.5802 170.872 13.4653C170.539 13.3388 170.2 13.2756 169.855 13.2756C169.177 13.2756 168.573 13.4308 168.044 13.7411C167.527 14.0515 167.119 14.4883 166.82 15.0515C166.521 15.6033 166.372 16.2412 166.372 16.9654C166.372 17.6895 166.516 18.3332 166.803 18.8964C167.09 19.4482 167.504 19.885 168.044 20.2068C168.585 20.5287 169.211 20.6896 169.924 20.6896C170.464 20.6896 170.941 20.5861 171.355 20.3792C171.769 20.1723 172.096 19.885 172.338 19.5172C172.579 19.1493 172.7 18.7183 172.7 18.224L175.338 17.7757C175.338 18.9482 175.102 19.9424 174.631 20.7586C174.159 21.5632 173.516 22.1724 172.7 22.5862C171.884 23 170.935 23.2069 169.855 23.2069ZM169.941 18.5171V16.3791H175.338V18.0171L173.786 18.5171H169.941Z" fill="white"></path>
</svg>
