<?xml version="1.0" encoding="UTF-8"?>
<svg xmlns="http://www.w3.org/2000/svg" width="64" height="64" viewBox="0 0 64 64" fill="none">
  <mask id="mask0_788_1673" style="mask-type:alpha" maskUnits="userSpaceOnUse" x="18" y="18" width="28" height="28">
    <rect x="18" y="18" width="28" height="28" fill="#D9D9D9"></rect>
  </mask>
  <g mask="url(#mask0_788_1673)">
    <path d="M32.4125 36.8696C32.7236 36.8696 32.9861 36.7633 33.2 36.5507C33.4139 36.3382 33.5208 36.0773 33.5208 35.7681C33.5208 35.4589 33.4139 35.1981 33.2 34.9855C32.9861 34.7729 32.7236 34.6667 32.4125 34.6667C32.1014 34.6667 31.8389 34.7729 31.625 34.9855C31.4111 35.1981 31.3042 35.4589 31.3042 35.7681C31.3042 36.0773 31.4111 36.3382 31.625 36.5507C31.8389 36.7633 32.1014 36.8696 32.4125 36.8696ZM33.1708 31.6812C33.2292 31.3913 33.3604 31.0966 33.5646 30.7971C33.7688 30.4976 34.0653 30.1546 34.4542 29.7681C35.0764 29.1498 35.5139 28.5942 35.7667 28.1014C36.0194 27.6087 36.1458 27.0628 36.1458 26.4638C36.1458 25.4589 35.8299 24.6715 35.1979 24.1014C34.566 23.5314 33.7153 23.2464 32.6458 23.2464C31.7708 23.2464 30.959 23.43 30.2104 23.7971C29.4618 24.1643 28.9806 24.6184 28.7667 25.1594C28.6694 25.372 28.65 25.5797 28.7083 25.7826C28.7667 25.9855 28.9028 26.1353 29.1167 26.2319C29.3306 26.3285 29.5493 26.3237 29.7729 26.2174C29.9965 26.1111 30.1958 25.971 30.3708 25.7971C30.6625 25.5072 30.9882 25.285 31.3479 25.1304C31.7076 24.9758 32.1014 24.8986 32.5292 24.8986C33.1125 24.8986 33.584 25.0483 33.9437 25.3478C34.3035 25.6473 34.4833 26.058 34.4833 26.5797C34.4833 26.9662 34.3764 27.343 34.1625 27.7101C33.9486 28.0773 33.5986 28.4831 33.1125 28.9275C32.5681 29.4493 32.1549 29.9469 31.8729 30.4203C31.591 30.8937 31.45 31.3237 31.45 31.7101C31.45 31.942 31.5278 32.1449 31.6833 32.3188C31.8389 32.4928 32.0236 32.5797 32.2375 32.5797C32.4708 32.5797 32.6701 32.4928 32.8354 32.3188C33.0007 32.1449 33.1125 31.9324 33.1708 31.6812ZM31.8875 43.7391L29 40.8696H23.75C23.2833 40.8696 22.875 40.6908 22.525 40.3333C22.175 39.9758 22 39.5749 22 39.1304V21.7391C22 21.2754 22.175 20.8696 22.525 20.5217C22.875 20.1739 23.2833 20 23.75 20H41.25C41.6972 20 42.1007 20.1739 42.4604 20.5217C42.8201 20.8696 43 21.2754 43 21.7391V39.1304C43 39.5749 42.8201 39.9758 42.4604 40.3333C42.1007 40.6908 41.6972 40.8696 41.25 40.8696H36L33.1125 43.7391C32.9375 43.913 32.7333 44 32.5 44C32.2667 44 32.0625 43.913 31.8875 43.7391ZM23.75 39.1304H29.7L32.5 41.913L35.3 39.1304H41.25V21.7391H23.75V39.1304Z" fill="#737373"></path>
  </g>
</svg>
