<?xml version="1.0" encoding="UTF-8"?>
<svg xmlns="http://www.w3.org/2000/svg" width="50" height="50" viewBox="0 0 50 50" fill="none">
  <path d="M41.139 18.1138H40.0303C39.5722 -3.36299 10.4566 -3.37961 9.99161 18.114L8.88285 18.1138C8.76977 18.1138 8.65779 18.136 8.5533 18.1791C8.44882 18.2222 8.35389 18.2854 8.27393 18.3651C8.19396 18.4448 8.13054 18.5394 8.08728 18.6435C8.04401 18.7476 8.02176 18.8592 8.02179 18.9719C7.92631 19.9648 8.14618 20.9624 8.65036 21.8241C9.15454 22.6857 9.91756 23.3678 10.8317 23.7739L12.0799 43.8041C12.1085 44.3093 12.2566 44.8006 12.512 45.2379C12.7675 45.6752 13.123 46.0462 13.5496 46.3206L14.3486 48.0287C14.6256 48.617 15.0648 49.1148 15.6149 49.4638C16.1651 49.8129 16.8035 49.9988 17.4556 50H32.5738C33.2245 49.9981 33.8612 49.8119 34.4097 49.4631C34.9582 49.1143 35.3958 48.6173 35.6716 48.0299L36.47 46.3308C36.8964 46.0533 37.2522 45.6808 37.5092 45.2427C37.7663 44.8047 37.9176 44.313 37.9512 43.8066L38.3044 38.1516C38.3169 37.9255 38.2391 37.7036 38.088 37.5343C37.937 37.3651 37.7249 37.2622 37.498 37.2482C37.2712 37.2341 37.0479 37.3101 36.877 37.4594C36.7061 37.6087 36.6014 37.8193 36.5856 38.0452L36.2325 43.7019C36.207 44.091 36.0345 44.456 35.7497 44.7234C35.465 44.9908 35.0891 45.1408 34.6979 45.1432H15.3324C14.9407 45.1417 14.5642 44.9917 14.2794 44.7237C13.9945 44.4557 13.8227 44.0898 13.7987 43.7002C13.8889 43.7035 12.3956 23.9612 12.6716 24.1547H30.427C30.6533 24.1515 30.8692 24.0597 31.028 23.8991C31.1869 23.7385 31.276 23.5221 31.276 23.2966C31.276 23.0711 31.1869 22.8547 31.028 22.6941C30.8692 22.5335 30.6533 22.4417 30.427 22.4385H12.6719C11.9496 22.4367 11.2533 22.1697 10.7163 21.6884C10.1792 21.2072 9.83899 20.5455 9.76073 19.83H26.7591C26.9853 19.8267 27.201 19.7348 27.3598 19.5742C27.5185 19.4137 27.6075 19.1973 27.6075 18.9719C27.6075 18.7465 27.5185 18.5302 27.3598 18.3696C27.201 18.2091 26.9853 18.1172 26.7591 18.1138H11.7197C11.759 15.7546 12.431 8.71193 18.8313 5.22514C20.7296 4.20299 22.8533 3.66778 25.0109 3.66778C27.1686 3.66778 29.2923 4.20299 31.1906 5.22514C37.5712 8.70069 38.2561 15.7513 38.3003 18.1138H30.2034C29.9771 18.117 29.7612 18.2088 29.6023 18.3694C29.4435 18.53 29.3544 18.7464 29.3544 18.9719C29.3544 19.1974 29.4435 19.4139 29.6023 19.5744C29.7612 19.735 29.9771 19.8268 30.2034 19.83H40.2611C40.1829 20.5455 39.8427 21.2072 39.3056 21.6884C38.7685 22.1697 38.0723 22.4367 37.35 22.4385C37.2327 22.4386 37.1166 22.4625 37.0089 22.5088C36.9012 22.5552 36.8041 22.6229 36.7236 22.708C36.6431 22.7931 36.5809 22.8936 36.5408 23.0035C36.5007 23.1133 36.4835 23.2302 36.4903 23.3469C36.4972 23.4636 36.5279 23.5777 36.5805 23.6822C36.6332 23.7867 36.7067 23.8794 36.7965 23.9545C36.8864 24.0297 36.9907 24.0857 37.1031 24.1193C37.2155 24.1528 37.3336 24.1632 37.4501 24.1496L36.8009 34.6133C36.7903 34.8384 36.8691 35.0586 37.0201 35.2264C37.1712 35.3941 37.3824 35.4959 37.6081 35.5098C37.8338 35.5236 38.0559 35.4484 38.2265 35.3004C38.3971 35.1525 38.5023 34.9436 38.5196 34.7188L39.199 23.7697C40.0308 23.4086 40.7388 22.8135 41.2363 22.0574C41.7339 21.3013 41.9992 20.417 42 19.5128V18.9719C42 18.8592 41.9778 18.7476 41.9345 18.6435C41.8913 18.5394 41.8278 18.4448 41.7479 18.3651C41.6679 18.2854 41.573 18.2222 41.4685 18.1791C41.3641 18.136 41.2521 18.1138 41.139 18.1138ZM32.5738 48.2839H17.4556C17.0487 48.2648 16.6587 48.1162 16.3429 47.8597C16.0271 47.6033 15.8022 47.2526 15.7014 46.8593L34.3207 46.8593C34.2208 47.2518 33.9971 47.6019 33.6827 47.8583C33.3683 48.1147 32.9796 48.2639 32.5738 48.2839ZM17.3227 15.1944C17.3707 15.3135 17.3925 15.4416 17.3866 15.5699C17.3806 15.6982 17.3471 15.8237 17.2883 15.938C17.2295 16.0522 17.1467 16.1526 17.0456 16.2322C16.9445 16.3118 16.8274 16.3689 16.7022 16.3995C15.8587 16.4886 15.4857 17.1245 14.8389 17.1916C14.6637 17.1887 14.4936 17.1329 14.3509 17.0317C14.2083 16.9305 14.0997 16.7886 14.0395 16.6246C13.9793 16.4607 13.9704 16.2825 14.0138 16.1134C14.0573 15.9443 14.1512 15.7923 14.283 15.6775C14.6644 15.3618 15.0977 15.1142 15.5637 14.9455C15.5534 14.3801 15.6649 13.819 15.8907 13.3002C16.1166 12.7814 16.4515 12.3169 16.8729 11.9381C17.2943 11.5593 17.7923 11.275 18.3334 11.1044C18.8745 10.9338 19.446 10.8809 20.0094 10.9492C20.2585 10.9796 20.5052 11.0275 20.7476 11.0925C21.1177 10.3052 21.6955 9.633 22.4194 9.14769C23.1432 8.66239 23.9858 8.38228 24.857 8.33732C25.8014 8.25889 26.7462 8.48474 27.5521 8.98159C28.358 9.47845 28.9826 10.2201 29.3338 11.0972C31.9138 9.79064 35.5196 11.7205 34.7668 14.8583C35.2914 15.0418 35.7677 15.341 36.1601 15.7336C36.3144 15.8973 36.3982 16.1147 36.3934 16.3393C36.3887 16.5638 36.2957 16.7776 36.1346 16.9347C35.9735 17.0917 35.757 17.1796 35.5316 17.1794C35.3062 17.1792 35.0899 17.0909 34.9291 16.9336C34.5606 16.597 34.0928 16.3882 33.5955 16.3382C33.4496 16.3265 33.3091 16.2784 33.1868 16.1983C33.0645 16.1182 32.9645 16.0087 32.8959 15.8798C32.8274 15.751 32.7925 15.6071 32.7945 15.4613C32.7966 15.3155 32.8355 15.1725 32.9076 15.0456C33.0702 14.7781 33.157 14.4716 33.1588 14.1588C33.1606 13.8459 33.0773 13.5385 32.9177 13.2691C32.7581 12.9997 32.5283 12.7784 32.2526 12.6288C31.9769 12.4792 31.6656 12.4069 31.352 12.4195C30.9961 12.379 30.6356 12.4217 30.2992 12.5443C29.9627 12.6668 29.6596 12.8658 29.4137 13.1254C29.3008 13.2632 29.1481 13.363 28.9762 13.4111C28.8044 13.4592 28.6218 13.4534 28.4535 13.3944C28.2862 13.3362 28.141 13.2277 28.0381 13.084C27.9351 12.9402 27.8793 12.7683 27.8783 12.5917C27.8703 12.2321 27.788 11.878 27.6365 11.5516C27.485 11.2252 27.2675 10.9335 26.9977 10.6946C26.7278 10.4558 26.4114 10.2751 26.0683 10.1636C25.7251 10.0522 25.3626 10.0126 25.0034 10.0472C24.3347 10.0567 23.6884 10.2888 23.1674 10.7066C22.6464 11.1244 22.2807 11.7039 22.1284 12.3529C22.1033 12.4811 22.0494 12.602 21.9707 12.7066C21.8921 12.8111 21.7908 12.8966 21.6743 12.9567C21.0465 13.2657 20.4344 12.6437 19.8017 12.6528C19.4593 12.6085 19.1112 12.6443 18.7851 12.7575C18.4591 12.8706 18.164 13.058 17.9233 13.3048C17.6827 13.5515 17.5031 13.8508 17.3988 14.1788C17.2945 14.5068 17.2685 14.8545 17.3227 15.1944Z" fill="#191919"></path>
</svg>
