<?xml version="1.0" encoding="UTF-8"?>
<svg xmlns="http://www.w3.org/2000/svg" width="50" height="50" viewBox="0 0 50 50" fill="none">
  <path d="M42.6138 33.9825C41.1874 31.6024 39.0999 31.8989 37.5327 32.0739L37.0231 26.8733C36.9205 25.7568 37.1822 24.637 37.768 23.6857L39.3833 21.0891C40.3158 19.6054 40.6374 17.8104 40.279 16.0892C39.9207 14.368 38.911 12.8577 37.4665 11.8823C36.1975 11.0133 34.4168 10.0188 33.8396 8.47457C30.9665 2.08833 25.5774 1.99647 25.0211 2.00008C23.586 2.03241 22.1796 2.4132 20.9198 3.11048C20.7216 3.21703 20.5733 3.39902 20.5075 3.61641C20.4417 3.8338 20.4637 4.06879 20.5689 4.26968C20.674 4.47057 20.8536 4.6209 21.0681 4.68761C21.2826 4.75432 21.5144 4.73194 21.7126 4.62539C22.714 4.07062 23.8285 3.75837 24.9688 3.7131C25.2305 3.71355 29.7615 3.6365 32.2995 9.18394C33.0231 11.048 34.9361 12.2687 36.521 13.3038C37.5993 14.0315 38.3531 15.1586 38.6208 16.4432C38.8885 17.7278 38.6488 19.0675 37.953 20.175C36.6767 22.1964 34.964 24.5055 35.3402 27.0415L35.8907 32.661C35.4081 32.924 34.9713 33.2654 34.5977 33.6716C32.4504 36.0215 32.6183 40.1204 32.8357 42.0241H23.7425C23.5204 42.0274 23.3085 42.1192 23.1526 42.2796C22.9967 42.44 22.9093 42.6561 22.9093 42.8812C22.9093 43.1063 22.9967 43.3224 23.1526 43.4828C23.3085 43.6431 23.5204 43.7349 23.7425 43.7382H34.127C34.3871 43.7384 34.6364 43.8432 34.8204 44.0295C35.0043 44.2159 35.1078 44.4686 35.1081 44.7321V47.2862C35.1078 47.5498 35.0043 47.8025 34.8204 47.9889C34.6365 48.1753 34.3871 48.2802 34.127 48.2805H15.8618C15.6017 48.2802 15.3523 48.1753 15.1684 47.9889C14.9845 47.8025 14.881 47.5498 14.8807 47.2861V44.7321C14.881 44.4685 14.9845 44.2159 15.1685 44.0295C15.3524 43.8432 15.6017 43.7385 15.8618 43.7382H20.36C20.5823 43.7352 20.7945 43.6436 20.9506 43.4832C21.1068 43.3228 21.1943 43.1065 21.1943 42.8812C21.1943 42.6558 21.1068 42.4396 20.9506 42.2792C20.7945 42.1188 20.5823 42.0271 20.36 42.0241H17.785C17.8338 39.8593 17.366 34.2627 14.1061 32.5403L14.6479 27.0415C14.787 25.546 14.4368 24.0455 13.6511 22.7717L12.0358 20.1746C11.3402 19.0671 11.1004 17.7275 11.3679 16.4429C11.6355 15.1583 12.389 14.0312 13.467 13.3031C15.0541 12.2593 16.9613 11.0622 17.6859 9.19019C17.9528 8.19052 19.4369 7.1445 18.4112 6.28851C18.226 6.16028 17.9982 6.11183 17.7778 6.15381C17.5574 6.19579 17.3625 6.32477 17.2359 6.51238C16.3227 7.80708 15.844 9.72148 14.391 10.6051L12.5222 11.8815C11.0777 12.857 10.068 14.3674 9.70966 16.0888C9.35133 17.8101 9.67296 19.6053 10.6055 21.089C11.5851 22.7218 13.3063 24.8403 12.9648 26.8721L12.4632 31.964C11.6685 31.8388 10.8579 31.8617 10.0712 32.0316C7.28998 32.5385 5.99636 35.4792 7.90528 39.0446L8.07857 45.9407C8.15535 47.0787 8.66954 48.1408 9.51063 48.8988C10.3517 49.6567 11.4526 50.05 12.5767 49.9941C12.9138 49.9469 37.4079 49.9946 37.4079 49.9946C38.533 50.0515 39.6351 49.6581 40.4767 48.8991C41.3182 48.1402 41.8319 47.0765 41.9069 45.9374L41.9408 44.6175C41.9434 44.3922 41.8585 44.1748 41.7042 44.0125C41.55 43.8502 41.339 43.7559 41.1167 43.7501C40.8944 43.7442 40.6788 43.8273 40.5165 43.9814C40.3542 44.1354 40.2583 44.348 40.2495 44.5732L40.2157 45.8948C40.1399 46.5819 39.8059 47.2132 39.2831 47.6574C38.7603 48.1016 38.0888 48.3248 37.4079 48.2805H36.607C36.9279 47.6828 36.7623 45.4192 36.7993 44.7321C36.7976 44.0891 36.5699 43.4678 36.1572 42.9794C35.7445 42.4911 35.1737 42.1677 34.547 42.0672C34.354 40.5554 34.0795 36.7583 35.8405 34.8341C36.6906 33.7423 39.9575 32.8271 41.1125 34.7709C41.5122 35.5853 41.2958 36.8517 40.4882 38.4331C40.4289 38.5481 40.3964 38.6754 40.3932 38.8051L40.3338 41.1449C40.328 41.3722 40.4115 41.5925 40.566 41.7574C40.7205 41.9223 40.9332 42.0182 41.1575 42.0241C41.3818 42.03 41.5992 41.9453 41.7619 41.7888C41.9246 41.6322 42.0192 41.4165 42.025 41.1892L42.0795 39.0432C43.0895 36.9923 43.2695 35.2907 42.6138 33.9825ZM9.76982 45.8968L9.59145 38.8072C9.58828 38.6775 9.55579 38.5502 9.49648 38.4352C8.68967 36.8541 8.47497 35.5878 8.87382 34.7726C9.03438 34.4994 9.25062 34.2641 9.5081 34.0823C9.76558 33.9006 10.0584 33.7767 10.3669 33.7189C15.3412 32.469 16.1743 39.1676 16.0909 42.0242C15.722 41.9956 15.3512 42.0443 15.0017 42.1672C14.6522 42.2902 14.3313 42.4847 14.0592 42.7387C13.787 42.9927 13.5694 43.3008 13.4197 43.6437C13.2701 43.9867 13.1918 44.3572 13.1895 44.7321C13.2316 45.4416 13.0525 47.6418 13.3817 48.28H12.5768C11.8965 48.3237 11.2258 48.1006 10.7033 47.657C10.1808 47.2134 9.8466 46.5832 9.76982 45.8968ZM31.8507 19.5559C30.0213 24.8496 30.0328 30.6181 31.8832 35.9042C31.9565 36.1168 31.9443 36.3501 31.8493 36.5537C31.7543 36.7573 31.584 36.9148 31.3753 36.9922C31.1666 37.0696 30.9362 37.0607 30.734 36.9674C30.5317 36.874 30.3738 36.7038 30.2944 36.4934C28.4128 31.1494 28.3053 25.3286 29.9884 19.917C26.6819 20.4756 23.3069 20.4756 20.0004 19.917C21.6834 25.3286 21.576 31.1493 19.6944 36.4934C19.6142 36.7026 19.4562 36.8717 19.2544 36.9642C19.0526 37.0567 18.823 37.0653 18.615 36.9882C18.407 36.911 18.2371 36.7543 18.1418 36.5516C18.0466 36.349 18.0335 36.1165 18.1055 35.9042C19.956 30.6181 19.9675 24.8496 18.1381 19.5559C16.6658 19.2203 15.2171 18.7861 13.8014 18.2563C13.591 18.1777 13.4199 18.0176 13.3259 17.8112C13.2319 17.6048 13.2226 17.369 13.3002 17.1556C13.3777 16.9423 13.5357 16.7689 13.7393 16.6737C13.943 16.5784 14.1756 16.569 14.3861 16.6476C21.2202 19.2782 28.7686 19.2782 35.6027 16.6476C35.8122 16.573 36.0423 16.585 36.2432 16.6809C36.4442 16.7767 36.5998 16.9489 36.6766 17.1601C36.7534 17.3713 36.7451 17.6046 36.6536 17.8097C36.562 18.0148 36.3946 18.1752 36.1874 18.2562C34.7718 18.7861 33.323 19.2203 31.8507 19.5559Z" fill="#191919"></path>
</svg>
