<?xml version="1.0" encoding="UTF-8"?>
<svg xmlns="http://www.w3.org/2000/svg" width="50" height="50" viewBox="0 0 50 50" fill="none">
  <path d="M24.5202 21.0445C24.7536 21.1236 24.9463 21.2909 25.0567 21.51C25.167 21.7292 25.1862 21.9828 25.11 22.2159C25.0338 22.449 24.8684 22.643 24.6495 22.7558C24.4306 22.8687 24.1758 22.8914 23.9402 22.8191C23.7068 22.74 23.5141 22.5727 23.4037 22.3535C23.2934 22.1344 23.2742 21.8808 23.3504 21.6477C23.4266 21.4146 23.592 21.2206 23.8109 21.1078C24.0298 20.9949 24.2846 20.9722 24.5202 21.0445ZM19.8424 24.6449C19.6409 24.5035 19.3914 24.4467 19.1479 24.4867C18.9045 24.5267 18.6868 24.6604 18.5417 24.8588C18.3967 25.0572 18.3361 25.3044 18.373 25.5468C18.41 25.7893 18.5414 26.0076 18.739 26.1544C18.9406 26.2955 19.1899 26.352 19.4331 26.3119C19.6763 26.2717 19.8938 26.1381 20.0387 25.9399C20.1836 25.7416 20.2443 25.4947 20.2075 25.2524C20.1708 25.0101 20.0397 24.7919 19.8424 24.6449ZM20.5309 30.3859C20.3335 30.5328 20.2022 30.7511 20.1654 30.9934C20.1286 31.2358 20.1892 31.4829 20.3342 31.6812C20.4791 31.8795 20.6968 32.0131 20.9401 32.0532C21.1834 32.0933 21.4328 32.0366 21.6343 31.8954C21.8312 31.7483 21.962 31.5301 21.9985 31.288C22.0351 31.0459 21.9744 30.7992 21.8296 30.6012C21.6849 30.4031 21.4676 30.2696 21.2246 30.2293C20.9817 30.189 20.7325 30.2452 20.5309 30.3859ZM26.8394 30.3336C26.606 30.4127 26.4134 30.5799 26.303 30.7991C26.1927 31.0183 26.1736 31.2719 26.2498 31.505C26.326 31.7381 26.4914 31.932 26.7103 32.0448C26.9292 32.1577 27.184 32.1804 27.4196 32.1081C27.6525 32.0286 27.8447 31.8613 27.9548 31.6423C28.0648 31.4233 28.0838 31.17 28.0076 30.9372C27.9315 30.7044 27.7664 30.5106 27.5479 30.3977C27.3293 30.2848 27.0749 30.2617 26.8394 30.3336ZM29.0748 24.5965C28.8282 24.6 28.593 24.6999 28.4199 24.8745C28.2467 25.049 28.1497 25.2843 28.1497 25.5294C28.1497 25.7745 28.2467 26.0098 28.4199 26.1844C28.593 26.359 28.8282 26.4588 29.0748 26.4624C29.3212 26.4585 29.5561 26.3585 29.7289 26.1839C29.9017 26.0094 29.9985 25.7743 29.9986 25.5295C29.9986 25.2846 29.9017 25.0495 29.7289 24.875C29.5561 24.7005 29.3212 24.6004 29.0748 24.5965ZM24.1832 29.8789C23.4405 29.8707 22.731 29.5718 22.2087 29.0469C21.6863 28.522 21.3934 27.8135 21.3934 27.0753C21.3934 26.337 21.6863 25.6285 22.2086 25.1036C22.7309 24.5787 23.4404 24.2798 24.1831 24.2716C24.9262 24.2792 25.6362 24.5779 26.1589 25.1029C26.6817 25.6278 26.9749 26.3366 26.9749 27.0752C26.9749 27.8138 26.6817 28.5226 26.159 29.0476C25.6363 29.5725 24.9262 29.8712 24.1832 29.8789ZM24.1832 25.9759C23.8928 25.9803 23.6157 26.0981 23.4119 26.3038C23.2081 26.5094 23.0939 26.7866 23.0939 27.0752C23.0939 27.3639 23.2081 27.641 23.4119 27.8467C23.6157 28.0524 23.8928 28.1702 24.1832 28.1746C24.4733 28.1698 24.75 28.0519 24.9535 27.8463C25.157 27.6406 25.2711 27.3637 25.2711 27.0753C25.2711 26.7868 25.157 26.5099 24.9535 26.3043C24.75 26.0986 24.4733 25.9807 24.1832 25.9759ZM48.0066 39.9184L42.8759 45.2194C42.2343 45.8787 41.3619 46.2672 40.4398 46.304C39.5177 46.3408 38.6168 46.0233 37.9241 45.4172C22.8935 56.7444 0.922803 45.7375 1.0002 27.0145C0.98973 22.7671 2.16835 18.6005 4.40422 14.9809C6.6401 11.3612 9.84505 8.43124 13.6606 6.51866C13.8628 6.42043 14.0958 6.40519 14.3093 6.47621C14.5228 6.54724 14.6996 6.69884 14.8016 6.89831C14.9036 7.09777 14.9226 7.32909 14.8545 7.54236C14.7864 7.75562 14.6366 7.93372 14.4376 8.03821C12.6687 8.93052 11.0319 10.0607 9.57329 11.3968C9.66353 11.5807 9.79008 11.7447 9.9454 11.8789C10.1007 12.0132 10.2816 12.115 10.4774 12.1783C10.6859 12.2184 10.8721 12.3339 10.9999 12.5026C11.1278 12.6712 11.1882 12.8809 11.1695 13.0912C11.1508 13.3015 11.0543 13.4974 10.8988 13.6412C10.7432 13.7849 10.5395 13.8662 10.3271 13.8693C9.92675 13.815 9.54254 13.6768 9.19985 13.4639C8.85716 13.2511 8.56379 12.9685 8.33909 12.6346C4.89762 16.3589 2.91199 21.1853 2.74188 26.2392C2.9365 26.3058 3.14259 26.3329 3.34793 26.3189C3.55327 26.3048 3.75368 26.2499 3.93726 26.1574C4.0296 26.0933 4.13375 26.048 4.24375 26.0239C4.35374 25.9999 4.46742 25.9977 4.57828 26.0174C4.68914 26.0371 4.795 26.0784 4.8898 26.1388C4.98461 26.1992 5.06649 26.2776 5.13077 26.3695C5.88769 27.7198 3.62499 28.2078 2.73953 27.9806C2.97181 33.0324 5.01356 37.8353 8.49618 41.522C8.67589 41.4324 8.83577 41.3079 8.96645 41.156C9.09712 41.0041 9.19595 40.8278 9.25713 40.6374C9.2767 40.5271 9.31801 40.4218 9.37868 40.3274C9.43936 40.2331 9.51819 40.1516 9.61066 40.0876C9.70313 40.0237 9.8074 39.9785 9.91749 39.9547C10.0276 39.931 10.1413 39.9291 10.2521 39.9491C11.7557 40.3633 10.4654 42.3347 9.73975 42.7474C13.4918 46.1498 18.3421 48.1097 23.4183 48.2745C23.4783 48.0881 23.5006 47.8918 23.4839 47.6968C23.4672 47.5018 23.4117 47.3121 23.3208 47.1385C23.1947 46.9529 23.1472 46.7254 23.1885 46.5053C23.2298 46.2851 23.3566 46.09 23.5416 45.962C23.7265 45.8341 23.9547 45.7837 24.1767 45.8216C24.3988 45.8595 24.5969 45.9828 24.7282 46.1648C25.1348 46.7789 25.2916 47.5237 25.1668 48.2483C29.3509 48.0434 33.382 46.62 36.7585 44.1554L34.1262 41.1258C22.8619 49.1787 6.71863 40.8038 6.83879 27.0148C6.90755 9.98379 29.2325 3.34186 38.6846 17.5551C38.8055 17.7438 38.847 17.9721 38.8 18.1909C38.753 18.4097 38.6214 18.6014 38.4336 18.7246C38.2457 18.8478 38.0166 18.8927 37.7958 18.8496C37.5749 18.8064 37.38 18.6787 37.253 18.494C28.7368 5.68063 8.61756 11.6632 8.55353 27.0143C8.44356 39.365 22.8356 46.9272 33.0014 39.8318L32.0068 38.6871C28.9036 40.7408 25.1097 41.4925 21.4515 40.7785C17.7932 40.0646 14.5669 37.9429 12.4753 34.8754C12.0719 34.0444 10.5402 32.5277 11.7956 31.8055C12.7302 31.4049 13.0247 32.4655 13.3756 33.0835L15.8516 30.93C16.0443 30.7576 16.1833 30.5339 16.2521 30.2854C16.3209 30.037 16.3167 29.7741 16.2399 29.528C16.1632 29.2818 16.0171 29.0626 15.819 28.8964C15.6209 28.7302 15.379 28.6238 15.122 28.5899L11.8437 28.2969C11.8697 28.5427 11.8953 28.7887 11.9363 29.0276C11.9568 29.1499 11.9504 29.2752 11.9173 29.3947C11.8843 29.5143 11.8255 29.6252 11.745 29.7199C11.6645 29.8146 11.5642 29.8908 11.4511 29.9431C11.338 29.9954 11.2148 30.0227 11.0901 30.0229C9.81416 29.9447 10.1736 27.9426 10.0538 27.0145C10.0645 24.1338 10.9625 21.3254 12.6269 18.9671C14.2913 16.6088 16.6424 14.8135 19.3638 13.8229C28.3426 10.4285 38.4598 17.4371 38.3113 27.0145C38.2858 27.2761 38.3113 27.2697 38.5591 27.4273L39.757 28.3774C39.9623 26.1112 39.6622 23.8279 38.8781 21.6903C38.8395 21.5851 38.8221 21.4734 38.827 21.3616C38.8318 21.2498 38.8588 21.14 38.9064 21.0385C38.954 20.9371 39.0212 20.8459 39.1042 20.7703C39.1872 20.6947 39.2844 20.6361 39.3902 20.5978C39.4961 20.5596 39.6084 20.5424 39.7209 20.5473C39.8334 20.5522 39.9439 20.5791 40.0459 20.6265C40.1479 20.6738 40.2396 20.7407 40.3156 20.8233C40.3916 20.9059 40.4505 21.0025 40.4889 21.1077C41.4933 23.8254 41.7775 26.7541 41.3143 29.6125L44.8225 32.3948C45.2186 30.8825 45.4465 29.3316 45.502 27.7698C45.146 27.6649 44.7629 27.7029 44.4349 27.8759C44.2483 28.0047 44.018 28.0546 43.7944 28.0148C43.5709 27.975 43.3724 27.8486 43.2424 27.6635C43.1125 27.4783 43.0617 27.2495 43.1013 27.0272C43.1409 26.805 43.2676 26.6074 43.4536 26.4778C44.0591 26.0822 44.792 25.927 45.5072 26.0427C45.2843 21.0133 43.2634 16.228 39.8079 12.5472C39.4726 12.7265 39.2218 13.0299 39.11 13.3917C39.0693 13.614 38.9418 13.8111 38.7552 13.9401C38.5687 14.0691 38.3383 14.1194 38.1145 14.08C36.6393 13.6809 37.8608 11.7508 38.5774 11.3236C34.8502 7.9078 30.0134 5.93518 24.9466 5.76452C24.8879 5.94952 24.8665 6.14421 24.8836 6.33745C24.9007 6.53068 24.956 6.71866 25.0463 6.89063C25.1339 7.01877 25.1849 7.1681 25.1939 7.32276C25.203 7.47742 25.1697 7.63162 25.0976 7.76897C25.0255 7.90632 24.9173 8.02169 24.7845 8.1028C24.6517 8.18391 24.4993 8.22774 24.3434 8.22963C23.2357 8.16466 23.0827 6.47435 23.2014 5.77077C21.3463 5.84239 19.5087 6.15565 17.7356 6.70254C17.52 6.76569 17.2881 6.74218 17.0897 6.63708C16.8914 6.53199 16.7425 6.3537 16.6751 6.14059C16.6077 5.92748 16.6272 5.69658 16.7293 5.4976C16.8315 5.29861 17.0082 5.14744 17.2213 5.07662C31.9633 0.361183 47.4602 11.7573 47.2455 27.1341C47.2279 29.3066 46.9014 31.4657 46.2757 33.5473L47.6574 34.6432C48.0456 34.9556 48.3645 35.3445 48.5942 35.7854C48.8239 36.2262 48.9594 36.7095 48.9922 37.2049C49.025 37.7003 48.9543 38.1971 48.7847 38.6641C48.6151 39.131 48.3502 39.5581 48.0066 39.9184ZM29.1858 15.7318L28.4828 18.8108C28.4298 19.0625 28.4502 19.3239 28.5415 19.5644C28.6329 19.805 28.7914 20.0146 28.9985 20.1687C29.2055 20.3228 29.4525 20.4149 29.7105 20.4343C29.9684 20.4536 30.2265 20.3994 30.4545 20.278L33.2505 18.6095C32.1062 17.3858 30.7232 16.4067 29.1858 15.7318ZM15.023 18.7131L17.7346 20.3054C17.9598 20.4337 18.2171 20.4955 18.4763 20.4835C18.7355 20.4715 18.986 20.3862 19.1981 20.2377C19.4103 20.0891 19.5754 19.8835 19.674 19.6449C19.7726 19.4063 19.8007 19.1447 19.7549 18.8907L19.0453 15.7912C17.5191 16.484 16.1506 17.4781 15.023 18.7131ZM26.7755 39.0717L25.4415 35.9897C25.3354 35.7555 25.1642 35.5563 24.9481 35.4154C24.732 35.2746 24.48 35.1979 24.2216 35.1945C23.9632 35.1911 23.7092 35.2611 23.4894 35.3962C23.2696 35.5313 23.0932 35.7259 22.9808 35.9572L21.6395 39.0769C23.3334 39.4287 25.0823 39.4269 26.7755 39.0717ZM46.5874 35.9755L37.4899 28.7596C37.1508 28.4924 36.7298 28.3489 36.297 28.353C35.8643 28.3571 35.4461 28.5085 35.1122 28.7821C34.9369 28.9216 34.7135 28.9872 34.49 28.9648C34.2665 28.9423 34.0609 28.8336 33.9172 28.6621C33.7735 28.4905 33.7033 28.2697 33.7216 28.0472C33.74 27.8247 33.8455 27.6183 34.0153 27.4722C34.7344 26.885 35.6548 26.5984 36.5823 26.6729C36.5246 24.2593 35.7432 21.9177 34.3381 19.9483L31.3119 21.7543C30.7952 22.0442 30.2051 22.1789 29.6129 22.1421C29.0208 22.1054 28.4521 21.8987 27.9757 21.5472C27.4993 21.1957 27.1357 20.7144 26.929 20.1617C26.7222 19.609 26.6812 19.0085 26.8108 18.433L27.5583 15.1559C25.3027 14.5294 22.9156 14.5437 20.6677 15.1971L21.4328 18.5396C21.5499 19.1177 21.496 19.7171 21.2777 20.2655C21.0593 20.8139 20.6859 21.2876 20.2025 21.6296C19.7191 21.9715 19.1464 22.167 18.5537 22.1924C17.9609 22.2177 17.3734 22.0719 16.8622 21.7726L13.9459 20.0607C12.6184 21.9863 11.8691 24.2475 11.7856 26.5804L15.3061 26.8956C15.8919 26.969 16.4441 27.2081 16.8971 27.5845C17.3501 27.9608 17.6848 28.4586 17.8614 29.0186C18.038 29.5786 18.049 30.1772 17.8932 30.7432C17.7373 31.3093 17.4212 31.8189 16.9824 32.2115L14.3406 34.5095C15.7895 36.3799 17.7459 37.7999 19.9794 38.6023L21.4165 35.2608C21.666 34.7288 22.0644 34.2795 22.564 33.9666C23.0636 33.6536 23.6432 33.4902 24.2337 33.4959C24.8242 33.5016 25.4005 33.6761 25.8939 33.9987C26.3873 34.3212 26.7768 34.7781 27.016 35.3147L28.4341 38.5898C29.2912 38.2804 30.1112 37.8778 30.8794 37.3896L29.9522 36.3225C29.3627 35.6494 29.0489 34.7808 29.073 33.8886C29.097 32.9965 29.4571 32.1459 30.082 31.505C30.0839 31.4997 31.9781 29.5508 31.9775 29.5469C32.137 29.3906 32.3504 29.3006 32.5743 29.295C32.7982 29.2894 33.0159 29.3688 33.1831 29.5169L35.9996 32.1508C36.3013 32.4321 36.535 32.7775 36.6834 33.1613C36.8317 33.5451 36.8908 33.9573 36.8561 34.367C36.8315 34.8858 36.644 35.3839 36.3199 35.7914C35.9959 36.1988 35.5516 36.4952 35.0494 36.6388C34.8674 36.6354 34.6912 36.575 34.5459 36.4661C34.4006 36.3572 34.2937 36.2054 34.2405 36.0325C34.1872 35.8595 34.1904 35.6742 34.2495 35.5032C34.3086 35.3321 34.4206 35.184 34.5695 35.0801C34.7187 35.0038 34.8475 34.8934 34.9453 34.758C35.043 34.6225 35.107 34.4659 35.1319 34.3011C35.1567 34.1362 35.1418 33.9678 35.0883 33.8098C35.0348 33.6518 34.9442 33.5088 34.8241 33.3924L32.6252 31.3361L31.3177 32.6868C30.9907 33.0224 30.8022 33.4677 30.7897 33.9348C30.7771 34.4019 30.9414 34.8567 31.2499 35.2091L38.8571 43.9637C39.0286 44.1604 39.2395 44.3194 39.4762 44.4307C39.713 44.542 39.9704 44.603 40.2322 44.61C40.494 44.617 40.7543 44.5697 40.9967 44.4712C41.2391 44.3727 41.4582 44.2251 41.6401 44.0378L46.7708 38.7368C46.9512 38.5485 47.0904 38.325 47.1796 38.0805C47.2687 37.8359 47.3058 37.5757 47.2886 37.3162C47.2714 37.0567 47.2002 36.8035 47.0795 36.5728C46.9588 36.342 46.7912 36.1386 46.5874 35.9755ZM44.1335 34.9719L40.9343 32.4346C40.7562 32.2987 40.5316 32.2378 40.3088 32.2647C40.0859 32.2917 39.8826 32.4045 39.7425 32.5789C39.6024 32.7532 39.5367 32.9752 39.5595 33.1972C39.5823 33.4192 39.6917 33.6235 39.8644 33.7661L43.0634 36.3034C43.1436 36.3675 43.2095 36.4475 43.257 36.5383C43.3045 36.629 43.3325 36.7286 43.3392 36.8307C43.346 36.9328 43.3314 37.0351 43.2963 37.1313C43.2612 37.2274 43.2065 37.3153 43.1355 37.3894L41.9843 38.5794C41.8277 38.7425 41.7426 38.9606 41.7474 39.1859C41.7523 39.4113 41.8468 39.6256 42.0102 39.7818C42.1736 39.9381 42.3927 40.0237 42.6194 40.0198C42.8461 40.0159 43.0621 39.9229 43.22 39.7611L44.3712 38.5711C44.6058 38.3253 44.7866 38.034 44.9024 37.7154C45.0182 37.3968 45.0665 37.0578 45.0442 36.7198C45.0218 36.3818 44.9294 36.052 44.7727 35.7512C44.6159 35.4504 44.3983 35.1851 44.1335 34.9719Z" fill="#191919"></path>
</svg>
