<?xml version="1.0" encoding="UTF-8"?>
<svg xmlns="http://www.w3.org/2000/svg" width="64" height="64" viewBox="0 0 64 64" fill="none">
  <mask id="mask0_788_1672" style="mask-type:alpha" maskUnits="userSpaceOnUse" x="18" y="18" width="28" height="28">
    <rect x="18" y="18" width="28" height="28" fill="#D9D9D9"></rect>
  </mask>
  <g mask="url(#mask0_788_1672)">
    <path d="M33.7369 42.4831C33.3928 42.8277 32.9769 43 32.4894 43C32.0019 43 31.586 42.8277 31.2419 42.4831L20.4875 31.7154C20.2963 31.5239 20.1673 31.3229 20.1004 31.1124C20.0335 30.9018 20 30.6816 20 30.4519V21.7228C20 21.2251 20.1625 20.8136 20.4875 20.4881C20.8126 20.1627 21.2236 20 21.7207 20H30.4389C30.6683 20 30.8978 20.0335 31.1272 20.1005C31.3566 20.1675 31.5669 20.2967 31.7581 20.4881L42.4551 31.1985C42.8184 31.5622 43 31.9881 43 32.4763C43 32.9644 42.8184 33.3903 42.4551 33.7541L33.7369 42.4831ZM32.5611 41.3059L41.2793 32.5768L30.4389 21.7228H21.7207V30.4519L32.5611 41.3059ZM24.7319 26.2022C25.1334 26.2022 25.4823 26.0539 25.7787 25.7572C26.075 25.4605 26.2232 25.1111 26.2232 24.7091C26.2232 24.3071 26.075 23.9578 25.7787 23.661C25.4823 23.3643 25.1334 23.216 24.7319 23.216C24.3304 23.216 23.9815 23.3643 23.6852 23.661C23.3888 23.9578 23.2406 24.3071 23.2406 24.7091C23.2406 25.1111 23.3888 25.4605 23.6852 25.7572C23.9815 26.0539 24.3304 26.2022 24.7319 26.2022Z" fill="#737373"></path>
  </g>
</svg>
