<?xml version="1.0" encoding="UTF-8"?>
<svg xmlns="http://www.w3.org/2000/svg" width="64" height="64" viewBox="0 0 64 64" fill="none">
  <mask id="mask0_788_1670" style="mask-type:alpha" maskUnits="userSpaceOnUse" x="18" y="18" width="28" height="28">
    <rect x="18" y="18" width="28" height="28" fill="#D9D9D9"></rect>
  </mask>
  <g mask="url(#mask0_788_1670)">
    <path d="M29.5833 30.5167L32.5 29.0583L35.4167 30.5167V23.75H29.5833V30.5167ZM26.6667 38.3333V36H32.5V38.3333H26.6667ZM23.75 43C23.2833 43 22.875 42.825 22.525 42.475C22.175 42.125 22 41.7167 22 41.25V23.75C22 23.2833 22.175 22.875 22.525 22.525C22.875 22.175 23.2833 22 23.75 22H41.25C41.7167 22 42.125 22.175 42.475 22.525C42.825 22.875 43 23.2833 43 23.75V41.25C43 41.7167 42.825 42.125 42.475 42.475C42.125 42.825 41.7167 43 41.25 43H23.75ZM23.75 41.25H41.25V23.75H37.1667V33.3458L32.5 31.0125L27.8333 33.3458V23.75H23.75V41.25Z" fill="#737373"></path>
  </g>
</svg>
