<?xml version="1.0" encoding="UTF-8"?>
<svg xmlns="http://www.w3.org/2000/svg" width="64" height="64" viewBox="0 0 64 64" fill="none">
  <mask id="mask0_788_1671" style="mask-type:alpha" maskUnits="userSpaceOnUse" x="18" y="18" width="28" height="28">
    <rect x="18" y="18" width="28" height="28" fill="#D9D9D9"></rect>
  </mask>
  <g mask="url(#mask0_788_1671)">
    <path d="M24.7812 43C24.3062 43 23.8906 42.8275 23.5344 42.4825C23.1781 42.1375 23 41.735 23 41.275V26.325C23 25.865 23.1781 25.4625 23.5344 25.1175C23.8906 24.7725 24.3062 24.6 24.7812 24.6H28.0469V24.3125C28.0469 23.105 28.4773 22.0844 29.3383 21.2506C30.1992 20.4169 31.2531 20 32.5 20C33.7469 20 34.8008 20.4169 35.6617 21.2506C36.5227 22.0844 36.9531 23.105 36.9531 24.3125V24.6H40.2188C40.6938 24.6 41.1094 24.7725 41.4656 25.1175C41.8219 25.4625 42 25.865 42 26.325V41.275C42 41.735 41.8219 42.1375 41.4656 42.4825C41.1094 42.8275 40.6938 43 40.2188 43H24.7812ZM24.7812 41.275H40.2188V26.325H36.9531V28.9125C36.9531 29.1617 36.869 29.3677 36.7008 29.5306C36.5326 29.6935 36.3198 29.775 36.0625 29.775C35.8052 29.775 35.5924 29.6935 35.4242 29.5306C35.256 29.3677 35.1719 29.1617 35.1719 28.9125V26.325H29.8281V28.9125C29.8281 29.1617 29.744 29.3677 29.5758 29.5306C29.4076 29.6935 29.1948 29.775 28.9375 29.775C28.6802 29.775 28.4674 29.6935 28.2992 29.5306C28.131 29.3677 28.0469 29.1617 28.0469 28.9125V26.325H24.7812V41.275ZM29.8281 24.6H35.1719V24.3125C35.1719 23.5842 34.9146 22.9708 34.4 22.4725C33.8854 21.9742 33.2521 21.725 32.5 21.725C31.7479 21.725 31.1146 21.9742 30.6 22.4725C30.0854 22.9708 29.8281 23.5842 29.8281 24.3125V24.6Z" fill="#737373"></path>
  </g>
</svg>
